<mxfile host="app.diagrams.net" agent="Mozilla/5.0 (Windows NT 10.0; Win64; x64) AppleWebKit/537.36 (KHTML, like Gecko) Chrome/134.0.0.0 Safari/537.36" version="26.1.3">
  <diagram name="Page-1" id="yNaYNuaKF5tL77W8p0HJ">
    <mxGraphModel dx="4200" dy="2280" grid="1" gridSize="10" guides="1" tooltips="1" connect="1" arrows="1" fold="1" page="1" pageScale="1" pageWidth="1169" pageHeight="827" math="0" shadow="0">
      <root>
        <mxCell id="0" />
        <mxCell id="1" parent="0" />
        <mxCell id="EevpuuvWmyLZ6dxZV1k--20" value="" style="edgeStyle=orthogonalEdgeStyle;rounded=0;orthogonalLoop=1;jettySize=auto;html=1;" edge="1" parent="1" source="EevpuuvWmyLZ6dxZV1k--1" target="EevpuuvWmyLZ6dxZV1k--19">
          <mxGeometry relative="1" as="geometry" />
        </mxCell>
        <mxCell id="EevpuuvWmyLZ6dxZV1k--1" value="Start" style="strokeWidth=2;html=1;shape=mxgraph.flowchart.start_1;whiteSpace=wrap;fillColor=#D5E8D4;" vertex="1" parent="1">
          <mxGeometry x="450" y="50" width="100" height="60" as="geometry" />
        </mxCell>
        <mxCell id="EevpuuvWmyLZ6dxZV1k--22" value="" style="edgeStyle=orthogonalEdgeStyle;rounded=0;orthogonalLoop=1;jettySize=auto;html=1;" edge="1" parent="1" source="EevpuuvWmyLZ6dxZV1k--19" target="EevpuuvWmyLZ6dxZV1k--21">
          <mxGeometry relative="1" as="geometry" />
        </mxCell>
        <mxCell id="EevpuuvWmyLZ6dxZV1k--19" value="splash screen" style="whiteSpace=wrap;html=1;strokeWidth=2;fillColor=#FFE599;" vertex="1" parent="1">
          <mxGeometry x="440" y="150" width="120" height="60" as="geometry" />
        </mxCell>
        <mxCell id="EevpuuvWmyLZ6dxZV1k--24" value="" style="edgeStyle=orthogonalEdgeStyle;rounded=0;orthogonalLoop=1;jettySize=auto;html=1;" edge="1" parent="1" source="EevpuuvWmyLZ6dxZV1k--21" target="EevpuuvWmyLZ6dxZV1k--23">
          <mxGeometry relative="1" as="geometry" />
        </mxCell>
        <mxCell id="EevpuuvWmyLZ6dxZV1k--21" value="Login/signup" style="whiteSpace=wrap;html=1;strokeWidth=2;fillColor=#FFE599;" vertex="1" parent="1">
          <mxGeometry x="440" y="250" width="120" height="60" as="geometry" />
        </mxCell>
        <mxCell id="EevpuuvWmyLZ6dxZV1k--26" value="" style="edgeStyle=orthogonalEdgeStyle;rounded=0;orthogonalLoop=1;jettySize=auto;html=1;" edge="1" parent="1" source="EevpuuvWmyLZ6dxZV1k--23" target="EevpuuvWmyLZ6dxZV1k--25">
          <mxGeometry relative="1" as="geometry" />
        </mxCell>
        <mxCell id="EevpuuvWmyLZ6dxZV1k--29" value="" style="edgeStyle=orthogonalEdgeStyle;rounded=0;orthogonalLoop=1;jettySize=auto;html=1;" edge="1" parent="1" source="EevpuuvWmyLZ6dxZV1k--23" target="EevpuuvWmyLZ6dxZV1k--28">
          <mxGeometry relative="1" as="geometry" />
        </mxCell>
        <mxCell id="EevpuuvWmyLZ6dxZV1k--23" value="Registered user?" style="rhombus;whiteSpace=wrap;html=1;strokeWidth=2;fillColor=#F8CECC;" vertex="1" parent="1">
          <mxGeometry x="445" y="340" width="110" height="110" as="geometry" />
        </mxCell>
        <mxCell id="EevpuuvWmyLZ6dxZV1k--74" value="" style="edgeStyle=orthogonalEdgeStyle;rounded=0;orthogonalLoop=1;jettySize=auto;html=1;" edge="1" parent="1" source="EevpuuvWmyLZ6dxZV1k--25" target="EevpuuvWmyLZ6dxZV1k--73">
          <mxGeometry relative="1" as="geometry">
            <Array as="points">
              <mxPoint x="280" y="780" />
              <mxPoint x="480" y="780" />
            </Array>
          </mxGeometry>
        </mxCell>
        <mxCell id="EevpuuvWmyLZ6dxZV1k--25" value="Filters" style="whiteSpace=wrap;html=1;strokeWidth=2;fillColor=#FFE599;" vertex="1" parent="1">
          <mxGeometry x="220" y="710" width="120" height="60" as="geometry" />
        </mxCell>
        <mxCell id="EevpuuvWmyLZ6dxZV1k--27" value="Yes" style="text;html=1;align=center;verticalAlign=middle;resizable=0;points=[];autosize=1;strokeColor=none;fillColor=none;" vertex="1" parent="1">
          <mxGeometry x="350" y="360" width="40" height="30" as="geometry" />
        </mxCell>
        <mxCell id="EevpuuvWmyLZ6dxZV1k--32" value="" style="edgeStyle=orthogonalEdgeStyle;rounded=0;orthogonalLoop=1;jettySize=auto;html=1;" edge="1" parent="1" source="EevpuuvWmyLZ6dxZV1k--28" target="EevpuuvWmyLZ6dxZV1k--31">
          <mxGeometry relative="1" as="geometry" />
        </mxCell>
        <mxCell id="EevpuuvWmyLZ6dxZV1k--28" value="Signup page" style="whiteSpace=wrap;html=1;strokeWidth=2;fillColor=#FFE599;" vertex="1" parent="1">
          <mxGeometry x="710" y="365" width="120" height="60" as="geometry" />
        </mxCell>
        <mxCell id="EevpuuvWmyLZ6dxZV1k--30" value="No" style="text;html=1;align=center;verticalAlign=middle;resizable=0;points=[];autosize=1;strokeColor=none;fillColor=none;" vertex="1" parent="1">
          <mxGeometry x="570" y="358" width="40" height="30" as="geometry" />
        </mxCell>
        <mxCell id="EevpuuvWmyLZ6dxZV1k--34" value="" style="edgeStyle=orthogonalEdgeStyle;rounded=0;orthogonalLoop=1;jettySize=auto;html=1;" edge="1" parent="1" source="EevpuuvWmyLZ6dxZV1k--31" target="EevpuuvWmyLZ6dxZV1k--33">
          <mxGeometry relative="1" as="geometry" />
        </mxCell>
        <mxCell id="EevpuuvWmyLZ6dxZV1k--36" value="" style="edgeStyle=orthogonalEdgeStyle;rounded=0;orthogonalLoop=1;jettySize=auto;html=1;" edge="1" parent="1" source="EevpuuvWmyLZ6dxZV1k--31" target="EevpuuvWmyLZ6dxZV1k--35">
          <mxGeometry relative="1" as="geometry" />
        </mxCell>
        <mxCell id="EevpuuvWmyLZ6dxZV1k--31" value="Profile setup" style="whiteSpace=wrap;html=1;strokeWidth=2;fillColor=#FFE599;" vertex="1" parent="1">
          <mxGeometry x="710" y="455" width="120" height="60" as="geometry" />
        </mxCell>
        <mxCell id="EevpuuvWmyLZ6dxZV1k--75" style="edgeStyle=orthogonalEdgeStyle;rounded=0;orthogonalLoop=1;jettySize=auto;html=1;" edge="1" parent="1" source="EevpuuvWmyLZ6dxZV1k--33" target="EevpuuvWmyLZ6dxZV1k--41">
          <mxGeometry relative="1" as="geometry">
            <Array as="points">
              <mxPoint x="590" y="660" />
              <mxPoint x="770" y="660" />
            </Array>
          </mxGeometry>
        </mxCell>
        <mxCell id="EevpuuvWmyLZ6dxZV1k--33" value="Basic detail" style="whiteSpace=wrap;html=1;strokeWidth=2;fillColor=#FFE599;" vertex="1" parent="1">
          <mxGeometry x="530" y="577" width="120" height="60" as="geometry" />
        </mxCell>
        <mxCell id="EevpuuvWmyLZ6dxZV1k--57" style="edgeStyle=orthogonalEdgeStyle;rounded=0;orthogonalLoop=1;jettySize=auto;html=1;" edge="1" parent="1" source="EevpuuvWmyLZ6dxZV1k--35" target="EevpuuvWmyLZ6dxZV1k--41">
          <mxGeometry relative="1" as="geometry">
            <Array as="points">
              <mxPoint x="770" y="660" />
              <mxPoint x="770" y="660" />
            </Array>
          </mxGeometry>
        </mxCell>
        <mxCell id="EevpuuvWmyLZ6dxZV1k--35" value="Kundali Input" style="whiteSpace=wrap;html=1;strokeWidth=2;fillColor=#FFE599;" vertex="1" parent="1">
          <mxGeometry x="710" y="577" width="120" height="60" as="geometry" />
        </mxCell>
        <mxCell id="EevpuuvWmyLZ6dxZV1k--58" style="edgeStyle=orthogonalEdgeStyle;rounded=0;orthogonalLoop=1;jettySize=auto;html=1;" edge="1" parent="1" source="EevpuuvWmyLZ6dxZV1k--39" target="EevpuuvWmyLZ6dxZV1k--41">
          <mxGeometry relative="1" as="geometry">
            <Array as="points">
              <mxPoint x="950" y="660" />
              <mxPoint x="770" y="660" />
            </Array>
          </mxGeometry>
        </mxCell>
        <mxCell id="EevpuuvWmyLZ6dxZV1k--39" value="Interests" style="whiteSpace=wrap;html=1;strokeWidth=2;fillColor=#FFE599;" vertex="1" parent="1">
          <mxGeometry x="890" y="577" width="120" height="60" as="geometry" />
        </mxCell>
        <mxCell id="EevpuuvWmyLZ6dxZV1k--66" style="edgeStyle=orthogonalEdgeStyle;rounded=0;orthogonalLoop=1;jettySize=auto;html=1;" edge="1" parent="1" source="EevpuuvWmyLZ6dxZV1k--41" target="EevpuuvWmyLZ6dxZV1k--25">
          <mxGeometry relative="1" as="geometry">
            <Array as="points">
              <mxPoint x="530" y="737" />
              <mxPoint x="530" y="737" />
            </Array>
          </mxGeometry>
        </mxCell>
        <mxCell id="EevpuuvWmyLZ6dxZV1k--69" style="edgeStyle=orthogonalEdgeStyle;rounded=0;orthogonalLoop=1;jettySize=auto;html=1;" edge="1" parent="1" source="EevpuuvWmyLZ6dxZV1k--41" target="EevpuuvWmyLZ6dxZV1k--31">
          <mxGeometry relative="1" as="geometry">
            <mxPoint x="1070" y="480" as="targetPoint" />
            <Array as="points">
              <mxPoint x="1090" y="737" />
              <mxPoint x="1090" y="480" />
            </Array>
          </mxGeometry>
        </mxCell>
        <mxCell id="EevpuuvWmyLZ6dxZV1k--41" value="Complete profile?" style="rhombus;whiteSpace=wrap;html=1;strokeWidth=2;fillColor=#F8CECC;" vertex="1" parent="1">
          <mxGeometry x="715" y="682" width="115" height="110" as="geometry" />
        </mxCell>
        <mxCell id="EevpuuvWmyLZ6dxZV1k--71" value="No" style="text;html=1;align=center;verticalAlign=middle;resizable=0;points=[];autosize=1;strokeColor=none;fillColor=none;" vertex="1" parent="1">
          <mxGeometry x="850" y="710" width="40" height="30" as="geometry" />
        </mxCell>
        <mxCell id="EevpuuvWmyLZ6dxZV1k--72" value="Yes" style="text;html=1;align=center;verticalAlign=middle;resizable=0;points=[];autosize=1;strokeColor=none;fillColor=none;" vertex="1" parent="1">
          <mxGeometry x="590" y="710" width="40" height="30" as="geometry" />
        </mxCell>
        <mxCell id="EevpuuvWmyLZ6dxZV1k--77" value="" style="edgeStyle=orthogonalEdgeStyle;rounded=0;orthogonalLoop=1;jettySize=auto;html=1;" edge="1" parent="1" source="EevpuuvWmyLZ6dxZV1k--73" target="EevpuuvWmyLZ6dxZV1k--76">
          <mxGeometry relative="1" as="geometry" />
        </mxCell>
        <mxCell id="EevpuuvWmyLZ6dxZV1k--82" value="" style="edgeStyle=orthogonalEdgeStyle;rounded=0;orthogonalLoop=1;jettySize=auto;html=1;" edge="1" parent="1" source="EevpuuvWmyLZ6dxZV1k--73" target="EevpuuvWmyLZ6dxZV1k--81">
          <mxGeometry relative="1" as="geometry">
            <Array as="points">
              <mxPoint x="500" y="930" />
              <mxPoint x="500" y="930" />
            </Array>
          </mxGeometry>
        </mxCell>
        <mxCell id="EevpuuvWmyLZ6dxZV1k--84" value="" style="edgeStyle=orthogonalEdgeStyle;rounded=0;orthogonalLoop=1;jettySize=auto;html=1;" edge="1" parent="1" source="EevpuuvWmyLZ6dxZV1k--73" target="EevpuuvWmyLZ6dxZV1k--83">
          <mxGeometry relative="1" as="geometry" />
        </mxCell>
        <mxCell id="EevpuuvWmyLZ6dxZV1k--86" value="" style="edgeStyle=orthogonalEdgeStyle;rounded=0;orthogonalLoop=1;jettySize=auto;html=1;" edge="1" parent="1" source="EevpuuvWmyLZ6dxZV1k--73" target="EevpuuvWmyLZ6dxZV1k--85">
          <mxGeometry relative="1" as="geometry" />
        </mxCell>
        <mxCell id="EevpuuvWmyLZ6dxZV1k--73" value="Homepage" style="whiteSpace=wrap;html=1;fillColor=#FFE599;strokeWidth=2;" vertex="1" parent="1">
          <mxGeometry x="420" y="860" width="120" height="60" as="geometry" />
        </mxCell>
        <mxCell id="EevpuuvWmyLZ6dxZV1k--79" value="" style="edgeStyle=orthogonalEdgeStyle;rounded=0;orthogonalLoop=1;jettySize=auto;html=1;" edge="1" parent="1">
          <mxGeometry relative="1" as="geometry">
            <mxPoint x="299.44000000000005" y="1046" as="sourcePoint" />
            <mxPoint x="299.44000000000005" y="1090.2307692307693" as="targetPoint" />
            <Array as="points">
              <mxPoint x="299.44000000000005" y="1066" />
              <mxPoint x="299.44000000000005" y="1066" />
            </Array>
          </mxGeometry>
        </mxCell>
        <mxCell id="EevpuuvWmyLZ6dxZV1k--76" value="Browsing sceen" style="whiteSpace=wrap;html=1;fillColor=#FFE599;strokeWidth=2;" vertex="1" parent="1">
          <mxGeometry x="240" y="980" width="120" height="60" as="geometry" />
        </mxCell>
        <mxCell id="EevpuuvWmyLZ6dxZV1k--88" value="" style="edgeStyle=orthogonalEdgeStyle;rounded=0;orthogonalLoop=1;jettySize=auto;html=1;" edge="1" parent="1" source="EevpuuvWmyLZ6dxZV1k--78" target="EevpuuvWmyLZ6dxZV1k--87">
          <mxGeometry relative="1" as="geometry" />
        </mxCell>
        <mxCell id="EevpuuvWmyLZ6dxZV1k--89" style="edgeStyle=orthogonalEdgeStyle;rounded=0;orthogonalLoop=1;jettySize=auto;html=1;entryX=0;entryY=0.5;entryDx=0;entryDy=0;" edge="1" parent="1" source="EevpuuvWmyLZ6dxZV1k--78" target="EevpuuvWmyLZ6dxZV1k--25">
          <mxGeometry relative="1" as="geometry">
            <Array as="points">
              <mxPoint x="90" y="1146" />
              <mxPoint x="90" y="740" />
            </Array>
          </mxGeometry>
        </mxCell>
        <mxCell id="EevpuuvWmyLZ6dxZV1k--78" value="Match Found?" style="rhombus;whiteSpace=wrap;html=1;fillColor=#F8CECC;strokeWidth=2;" vertex="1" parent="1">
          <mxGeometry x="235" y="1091" width="130" height="110" as="geometry" />
        </mxCell>
        <mxCell id="EevpuuvWmyLZ6dxZV1k--95" value="" style="edgeStyle=orthogonalEdgeStyle;rounded=0;orthogonalLoop=1;jettySize=auto;html=1;" edge="1" parent="1" source="EevpuuvWmyLZ6dxZV1k--81" target="EevpuuvWmyLZ6dxZV1k--94">
          <mxGeometry relative="1" as="geometry" />
        </mxCell>
        <mxCell id="EevpuuvWmyLZ6dxZV1k--81" value="Chat&amp;nbsp; menu" style="whiteSpace=wrap;html=1;fillColor=#FFE599;strokeWidth=2;" vertex="1" parent="1">
          <mxGeometry x="440" y="980" width="120" height="60" as="geometry" />
        </mxCell>
        <mxCell id="EevpuuvWmyLZ6dxZV1k--111" value="" style="edgeStyle=orthogonalEdgeStyle;rounded=0;orthogonalLoop=1;jettySize=auto;html=1;" edge="1" parent="1" source="EevpuuvWmyLZ6dxZV1k--83" target="EevpuuvWmyLZ6dxZV1k--110">
          <mxGeometry relative="1" as="geometry" />
        </mxCell>
        <mxCell id="EevpuuvWmyLZ6dxZV1k--83" value="profile screen" style="whiteSpace=wrap;html=1;fillColor=#FFE599;strokeWidth=2;" vertex="1" parent="1">
          <mxGeometry x="890" y="980" width="120" height="60" as="geometry" />
        </mxCell>
        <mxCell id="EevpuuvWmyLZ6dxZV1k--105" value="" style="edgeStyle=orthogonalEdgeStyle;rounded=0;orthogonalLoop=1;jettySize=auto;html=1;" edge="1" parent="1" source="EevpuuvWmyLZ6dxZV1k--85" target="EevpuuvWmyLZ6dxZV1k--104">
          <mxGeometry relative="1" as="geometry" />
        </mxCell>
        <mxCell id="EevpuuvWmyLZ6dxZV1k--85" value="Favorites screen" style="whiteSpace=wrap;html=1;fillColor=#FFE599;strokeWidth=2;" vertex="1" parent="1">
          <mxGeometry x="670" y="980" width="120" height="60" as="geometry" />
        </mxCell>
        <mxCell id="EevpuuvWmyLZ6dxZV1k--93" value="" style="edgeStyle=orthogonalEdgeStyle;rounded=0;orthogonalLoop=1;jettySize=auto;html=1;" edge="1" parent="1" source="EevpuuvWmyLZ6dxZV1k--87" target="EevpuuvWmyLZ6dxZV1k--92">
          <mxGeometry relative="1" as="geometry" />
        </mxCell>
        <mxCell id="EevpuuvWmyLZ6dxZV1k--87" value="Display profiles" style="whiteSpace=wrap;html=1;fillColor=#FFE599;strokeWidth=2;" vertex="1" parent="1">
          <mxGeometry x="240" y="1240" width="120" height="60" as="geometry" />
        </mxCell>
        <mxCell id="EevpuuvWmyLZ6dxZV1k--90" value="NO" style="text;html=1;align=center;verticalAlign=middle;resizable=0;points=[];autosize=1;strokeColor=none;fillColor=none;" vertex="1" parent="1">
          <mxGeometry x="190" y="1108" width="40" height="30" as="geometry" />
        </mxCell>
        <mxCell id="EevpuuvWmyLZ6dxZV1k--91" value="Yes" style="text;html=1;align=center;verticalAlign=middle;resizable=0;points=[];autosize=1;strokeColor=none;fillColor=none;" vertex="1" parent="1">
          <mxGeometry x="310" y="1198" width="40" height="30" as="geometry" />
        </mxCell>
        <mxCell id="EevpuuvWmyLZ6dxZV1k--100" style="edgeStyle=orthogonalEdgeStyle;rounded=0;orthogonalLoop=1;jettySize=auto;html=1;entryX=0;entryY=0.5;entryDx=0;entryDy=0;" edge="1" parent="1" source="EevpuuvWmyLZ6dxZV1k--92" target="EevpuuvWmyLZ6dxZV1k--98">
          <mxGeometry relative="1" as="geometry" />
        </mxCell>
        <mxCell id="EevpuuvWmyLZ6dxZV1k--101" style="edgeStyle=orthogonalEdgeStyle;rounded=0;orthogonalLoop=1;jettySize=auto;html=1;entryX=0;entryY=0.5;entryDx=0;entryDy=0;" edge="1" parent="1" source="EevpuuvWmyLZ6dxZV1k--92" target="EevpuuvWmyLZ6dxZV1k--76">
          <mxGeometry relative="1" as="geometry">
            <Array as="points">
              <mxPoint x="50" y="1380" />
              <mxPoint x="50" y="1010" />
            </Array>
          </mxGeometry>
        </mxCell>
        <mxCell id="EevpuuvWmyLZ6dxZV1k--92" value="Match accepted?" style="rhombus;whiteSpace=wrap;html=1;fillColor=#FFE599;strokeWidth=2;" vertex="1" parent="1">
          <mxGeometry x="235" y="1330" width="130" height="100" as="geometry" />
        </mxCell>
        <mxCell id="EevpuuvWmyLZ6dxZV1k--97" value="" style="edgeStyle=orthogonalEdgeStyle;rounded=0;orthogonalLoop=1;jettySize=auto;html=1;" edge="1" parent="1" source="EevpuuvWmyLZ6dxZV1k--94" target="EevpuuvWmyLZ6dxZV1k--96">
          <mxGeometry relative="1" as="geometry" />
        </mxCell>
        <mxCell id="EevpuuvWmyLZ6dxZV1k--94" value="View messages" style="whiteSpace=wrap;html=1;fillColor=#FFE599;strokeWidth=2;" vertex="1" parent="1">
          <mxGeometry x="440" y="1116" width="120" height="60" as="geometry" />
        </mxCell>
        <mxCell id="EevpuuvWmyLZ6dxZV1k--99" value="" style="edgeStyle=orthogonalEdgeStyle;rounded=0;orthogonalLoop=1;jettySize=auto;html=1;" edge="1" parent="1" source="EevpuuvWmyLZ6dxZV1k--96" target="EevpuuvWmyLZ6dxZV1k--98">
          <mxGeometry relative="1" as="geometry" />
        </mxCell>
        <mxCell id="EevpuuvWmyLZ6dxZV1k--96" value="Send message" style="whiteSpace=wrap;html=1;fillColor=#FFE599;strokeWidth=2;" vertex="1" parent="1">
          <mxGeometry x="440" y="1220" width="120" height="60" as="geometry" />
        </mxCell>
        <mxCell id="EevpuuvWmyLZ6dxZV1k--123" style="edgeStyle=orthogonalEdgeStyle;rounded=0;orthogonalLoop=1;jettySize=auto;html=1;" edge="1" parent="1" source="EevpuuvWmyLZ6dxZV1k--98">
          <mxGeometry relative="1" as="geometry">
            <mxPoint x="729.9999999999998" y="1470" as="targetPoint" />
            <Array as="points">
              <mxPoint x="500" y="1450" />
              <mxPoint x="730" y="1450" />
            </Array>
          </mxGeometry>
        </mxCell>
        <mxCell id="EevpuuvWmyLZ6dxZV1k--98" value="Start chats" style="whiteSpace=wrap;html=1;fillColor=#FFE599;strokeWidth=2;" vertex="1" parent="1">
          <mxGeometry x="440" y="1310" width="120" height="60" as="geometry" />
        </mxCell>
        <mxCell id="EevpuuvWmyLZ6dxZV1k--102" value="NO" style="text;html=1;align=center;verticalAlign=middle;resizable=0;points=[];autosize=1;strokeColor=none;fillColor=none;" vertex="1" parent="1">
          <mxGeometry x="160" y="1348" width="40" height="30" as="geometry" />
        </mxCell>
        <mxCell id="EevpuuvWmyLZ6dxZV1k--103" value="yes" style="text;html=1;align=center;verticalAlign=middle;resizable=0;points=[];autosize=1;strokeColor=none;fillColor=none;" vertex="1" parent="1">
          <mxGeometry x="365" y="1348" width="40" height="30" as="geometry" />
        </mxCell>
        <mxCell id="EevpuuvWmyLZ6dxZV1k--107" value="" style="edgeStyle=orthogonalEdgeStyle;rounded=0;orthogonalLoop=1;jettySize=auto;html=1;" edge="1" parent="1" source="EevpuuvWmyLZ6dxZV1k--104" target="EevpuuvWmyLZ6dxZV1k--106">
          <mxGeometry relative="1" as="geometry" />
        </mxCell>
        <mxCell id="EevpuuvWmyLZ6dxZV1k--104" value="View favourites" style="whiteSpace=wrap;html=1;fillColor=#FFE599;strokeWidth=2;" vertex="1" parent="1">
          <mxGeometry x="670" y="1078" width="120" height="60" as="geometry" />
        </mxCell>
        <mxCell id="EevpuuvWmyLZ6dxZV1k--117" value="" style="edgeStyle=orthogonalEdgeStyle;rounded=0;orthogonalLoop=1;jettySize=auto;html=1;" edge="1" parent="1" source="EevpuuvWmyLZ6dxZV1k--106" target="EevpuuvWmyLZ6dxZV1k--116">
          <mxGeometry relative="1" as="geometry" />
        </mxCell>
        <mxCell id="EevpuuvWmyLZ6dxZV1k--106" value="Save Favourites" style="whiteSpace=wrap;html=1;fillColor=#FFE599;strokeWidth=2;" vertex="1" parent="1">
          <mxGeometry x="670" y="1176" width="120" height="60" as="geometry" />
        </mxCell>
        <mxCell id="EevpuuvWmyLZ6dxZV1k--113" value="" style="edgeStyle=orthogonalEdgeStyle;rounded=0;orthogonalLoop=1;jettySize=auto;html=1;" edge="1" parent="1" source="EevpuuvWmyLZ6dxZV1k--110" target="EevpuuvWmyLZ6dxZV1k--112">
          <mxGeometry relative="1" as="geometry" />
        </mxCell>
        <mxCell id="EevpuuvWmyLZ6dxZV1k--110" value="View Profile" style="whiteSpace=wrap;html=1;fillColor=#FFE599;strokeWidth=2;" vertex="1" parent="1">
          <mxGeometry x="890" y="1060" width="120" height="60" as="geometry" />
        </mxCell>
        <mxCell id="EevpuuvWmyLZ6dxZV1k--115" value="" style="edgeStyle=orthogonalEdgeStyle;rounded=0;orthogonalLoop=1;jettySize=auto;html=1;" edge="1" parent="1" source="EevpuuvWmyLZ6dxZV1k--112" target="EevpuuvWmyLZ6dxZV1k--114">
          <mxGeometry relative="1" as="geometry" />
        </mxCell>
        <mxCell id="EevpuuvWmyLZ6dxZV1k--112" value="Update Details" style="whiteSpace=wrap;html=1;fillColor=#FFE599;strokeWidth=2;" vertex="1" parent="1">
          <mxGeometry x="890" y="1150" width="120" height="60" as="geometry" />
        </mxCell>
        <mxCell id="EevpuuvWmyLZ6dxZV1k--120" style="edgeStyle=orthogonalEdgeStyle;rounded=0;orthogonalLoop=1;jettySize=auto;html=1;entryX=0.5;entryY=0;entryDx=0;entryDy=0;entryPerimeter=0;" edge="1" parent="1" source="EevpuuvWmyLZ6dxZV1k--114" target="EevpuuvWmyLZ6dxZV1k--118">
          <mxGeometry relative="1" as="geometry">
            <Array as="points">
              <mxPoint x="950" y="1450" />
              <mxPoint x="730" y="1450" />
            </Array>
          </mxGeometry>
        </mxCell>
        <mxCell id="EevpuuvWmyLZ6dxZV1k--114" value="Adjust Prefrences" style="whiteSpace=wrap;html=1;fillColor=#FFE599;strokeWidth=2;" vertex="1" parent="1">
          <mxGeometry x="890" y="1240" width="120" height="60" as="geometry" />
        </mxCell>
        <mxCell id="EevpuuvWmyLZ6dxZV1k--119" value="" style="edgeStyle=orthogonalEdgeStyle;rounded=0;orthogonalLoop=1;jettySize=auto;html=1;" edge="1" parent="1" source="EevpuuvWmyLZ6dxZV1k--116" target="EevpuuvWmyLZ6dxZV1k--118">
          <mxGeometry relative="1" as="geometry" />
        </mxCell>
        <mxCell id="EevpuuvWmyLZ6dxZV1k--125" style="edgeStyle=orthogonalEdgeStyle;rounded=0;orthogonalLoop=1;jettySize=auto;html=1;exitX=0;exitY=0.5;exitDx=0;exitDy=0;entryX=1;entryY=0.5;entryDx=0;entryDy=0;" edge="1" parent="1" source="EevpuuvWmyLZ6dxZV1k--116" target="EevpuuvWmyLZ6dxZV1k--76">
          <mxGeometry relative="1" as="geometry">
            <Array as="points">
              <mxPoint x="610" y="1332" />
              <mxPoint x="610" y="940" />
              <mxPoint x="390" y="940" />
              <mxPoint x="390" y="1010" />
            </Array>
          </mxGeometry>
        </mxCell>
        <mxCell id="EevpuuvWmyLZ6dxZV1k--116" value="Exit Interactions?" style="rhombus;whiteSpace=wrap;html=1;fillColor=#F8CECC;strokeWidth=2;" vertex="1" parent="1">
          <mxGeometry x="670" y="1280" width="120" height="104" as="geometry" />
        </mxCell>
        <mxCell id="EevpuuvWmyLZ6dxZV1k--118" value="Logout" style="whiteSpace=wrap;html=1;fillColor=#D5E8D4;strokeWidth=2;shape=mxgraph.flowchart.start_1;" vertex="1" parent="1">
          <mxGeometry x="670" y="1470" width="120" height="60" as="geometry" />
        </mxCell>
        <mxCell id="EevpuuvWmyLZ6dxZV1k--122" value="Yes" style="text;html=1;align=center;verticalAlign=middle;resizable=0;points=[];autosize=1;strokeColor=none;fillColor=none;" vertex="1" parent="1">
          <mxGeometry x="730" y="1420" width="40" height="30" as="geometry" />
        </mxCell>
        <mxCell id="EevpuuvWmyLZ6dxZV1k--124" style="edgeStyle=orthogonalEdgeStyle;rounded=0;orthogonalLoop=1;jettySize=auto;html=1;exitX=0.5;exitY=1;exitDx=0;exitDy=0;entryX=0.5;entryY=0;entryDx=0;entryDy=0;entryPerimeter=0;" edge="1" parent="1" source="EevpuuvWmyLZ6dxZV1k--92" target="EevpuuvWmyLZ6dxZV1k--118">
          <mxGeometry relative="1" as="geometry" />
        </mxCell>
        <mxCell id="EevpuuvWmyLZ6dxZV1k--126" value="NO" style="text;html=1;align=center;verticalAlign=middle;resizable=0;points=[];autosize=1;strokeColor=none;fillColor=none;" vertex="1" parent="1">
          <mxGeometry x="640" y="1300" width="40" height="30" as="geometry" />
        </mxCell>
      </root>
    </mxGraphModel>
  </diagram>
</mxfile>
